	<svg xmlns="http://www.w3.org/2000/svg" version="1.1" xmlns:xlink="http://www.w3.org/1999/xlink" xmlns:svgjs="http://svgjs.dev/svgjs" viewBox="0 0 1920 1080" class="overflow-hidden rounded-md drop-shadow-lg transition duration-300" style="overflow: hidden; height: 85vh;"><rect width="1920" height="1080" fill="#401d08"></rect><g clip-path="url(&quot;#SvgjsClipPath1082&quot;)"><g transform="matrix(0.9752553105798898,0.6094071538681856,-0.6094071538681856,0.9752553105798898,352.15609351418675,-554.9545544483572)"><path d="M0,-1080C3.3590852252214156,-947.8375494061249,22.93903751757251,-562.8648587116816,20.154511351328495,-287.0252964367496C17.36998518508448,-11.18573416181772,-4.237707441219614,310.4920564654453,-16.707156997464082,575.0373736495915C-29.176606553708552,839.5826908337376,-57.446712152382325,1036.0861689430596,-54.66218598613831,1300.2466066681277C-51.8776598198943,1564.4070443931957,-9.110364331023051,2016.7077677780212,0,2160L 1920 2160 L 1920 -1080 Z" fill="url(&quot;#SvgjsLinearGradient1078&quot;)"></path><path d="M480,-1080C471.4193591323812,-981.2407461466884,426.52961816933185,-678.0980702694345,428.51615479428733,-487.4444768801302C430.5026914192428,-296.7908834908259,484.9312631387822,-103.11960215953965,491.919219749733,63.92156033582603C498.90717636068376,230.9627228311917,465.19650698178646,350.7141606124808,470.44389445999195,514.802498092064C475.69128193819745,678.8908355716471,519.8604125417042,870.5140884168635,523.403544618966,1048.4515852133252C526.9466766962277,1226.389082009787,498.93661102672286,1397.1694097397217,491.7026869235619,1582.4274788708342C484.4687628204009,1767.6855480019467,481.95044782059364,2063.737913145139,480,2160L 1920 2160 L 1920 -1080 Z" fill="url(&quot;#SvgjsLinearGradient1079&quot;)"></path><path d="M960,-1080C959.8147339686229,-996.9998197162197,964.5738139358875,-766.4906387238789,958.8884038117379,-581.998918297318C953.2029936875883,-397.5071978707572,924.1560727595055,-156.3495004589785,925.8875392551024,26.95032255936485C927.6190057506993,210.2501455777082,963.5885998930921,351.20236384899533,969.2772027853196,517.800019812742C974.965805677547,684.3976757764887,971.2936041165873,835.5510172001761,960.0191566084669,1026.536258341845C948.7447091003465,1217.521499483514,901.6337105046754,1474.800843053063,901.6305177365975,1663.7114666627556C901.6273249685197,1852.622090272448,950.2717529560996,2077.2852444437926,960,2160L 1920 2160 L 1920 -1080 Z" fill="url(&quot;#SvgjsLinearGradient1080&quot;)"></path><path d="M1440,-1080C1443.2563912327955,-962.6337861190709,1449.7595799869603,-599.3218495689645,1459.538347396773,-375.8027167144254C1469.3171148065856,-152.28358385988633,1508.4204215761024,53.663519765034124,1498.6726044588763,261.1147971272345C1488.9247873416502,468.56607448943487,1404.833171401412,669.5583799690897,1401.0514446934164,868.9049474587769C1397.2697179854208,1068.2515149484639,1469.490818326472,1242.0116933084864,1475.9822442109025,1457.1942020653569C1482.473670095333,1672.3767108222273,1445.997040701817,2042.865700344226,1440,2160L 1920 2160 L 1920 -1080 Z" fill="url(&quot;#SvgjsLinearGradient1081&quot;)"></path></g></g><defs><linearGradient x1="0.1" y1="0" x2="0" y2="1" id="SvgjsLinearGradient1078"><stop stop-color="#401d08" offset="0"></stop><stop stop-color="#401408" offset="0"></stop></linearGradient><linearGradient x1="0.1" y1="0" x2="0" y2="1" id="SvgjsLinearGradient1079"><stop stop-color="#301606" offset="0"></stop><stop stop-color="#300f06" offset="0.25"></stop></linearGradient><linearGradient x1="0.1" y1="0" x2="0" y2="1" id="SvgjsLinearGradient1080"><stop stop-color="#1f0e04" offset="0"></stop><stop stop-color="#1f0904" offset="0.5"></stop></linearGradient><linearGradient x1="0.1" y1="0" x2="0" y2="1" id="SvgjsLinearGradient1081"><stop stop-color="#0f0702" offset="0"></stop><stop stop-color="#0f0502" offset="0.75"></stop></linearGradient><clipPath id="SvgjsClipPath1082"><rect width="1920" height="1080"></rect></clipPath></defs></svg>
