<?xml version="1.0" standalone="no"?>
<!DOCTYPE svg PUBLIC "-//W3C//DTD SVG 20010904//EN"
 "http://www.w3.org/TR/2001/REC-SVG-20010904/DTD/svg10.dtd">
<svg version="1.0" xmlns="http://www.w3.org/2000/svg"
 width="300.000000pt" height="300.000000pt" viewBox="0 0 300.000000 300.000000"
 preserveAspectRatio="xMidYMid meet">
<metadata>
Created by potrace 1.14, written by Peter Selinger 2001-2017
</metadata>
<g transform="translate(0.000000,300.000000) scale(0.100000,-0.100000)"
fill="#000000" stroke="none">
<path d="M0 1500 l0 -1500 1500 0 1500 0 0 1500 0 1500 -1500 0 -1500 0 0
-1500z m1370 810 c48 -25 70 -64 70 -126 0 -41 -5 -51 -39 -85 l-39 -39 -216
0 -216 0 0 -632 c0 -617 0 -633 -21 -674 -48 -100 -197 -111 -263 -21 -21 28
-21 41 -26 675 l-5 647 -215 5 c-187 4 -220 7 -244 23 -30 20 -56 72 -56 112
0 52 44 109 96 125 16 4 278 9 582 9 535 1 554 0 592 -19z m1121 6 c127 -23
223 -86 270 -178 32 -63 51 -166 47 -248 -7 -120 -68 -230 -152 -275 -20 -11
-36 -22 -36 -25 0 -3 23 -16 52 -29 29 -13 76 -48 106 -77 97 -98 135 -229
114 -396 -26 -207 -139 -336 -347 -395 -50 -14 -120 -17 -435 -20 -419 -4
-421 -4 -467 66 l-23 34 0 727 0 727 23 34 c45 68 53 69 432 69 240 -1 362 -5
416 -14z"/>
<path d="M1930 1865 l0 -186 228 3 229 3 40 27 c53 35 78 96 70 172 -7 70 -28
109 -74 138 -37 22 -47 23 -265 26 l-228 3 0 -186z"/>
<path d="M1930 1169 l0 -231 243 4 c249 5 283 10 338 51 15 10 37 38 50 60 20
35 24 56 24 127 -1 100 -16 137 -73 175 -58 38 -111 44 -354 45 l-228 0 0
-231z"/>
</g>
</svg>
